<?xml version="1.0" encoding="UTF-8" standalone="no"?>
<svg
   xmlns:dc="http://purl.org/dc/elements/1.1/"
   xmlns:cc="http://creativecommons.org/ns#"
   xmlns:rdf="http://www.w3.org/1999/02/22-rdf-syntax-ns#"
   xmlns:svg="http://www.w3.org/2000/svg"
   xmlns="http://www.w3.org/2000/svg"
   xmlns:xlink="http://www.w3.org/1999/xlink"
   xmlns:sodipodi="http://sodipodi.sourceforge.net/DTD/sodipodi-0.dtd"
   xmlns:inkscape="http://www.inkscape.org/namespaces/inkscape"
   xml:space="preserve"
   height="500"
   viewBox="0 0 500.00889 500"
   width="500"
   version="1.1"
   y="0px"
   x="0px"
   enable-background="new 0 0 595.275 311.111"
   id="svg3051"
   inkscape:version="0.48.2 r9819"
   sodipodi:docname="owncloudnews-icon.svg"
   inkscape:export-filename="/Users/wutzelputz/Desktop/owncloudnews-icon-16.png"
   inkscape:export-xdpi="2.8800001"
   inkscape:export-ydpi="2.8800001"><metadata
     id="metadata3077"><rdf:RDF><cc:Work
         rdf:about=""><dc:format>image/svg+xml</dc:format><dc:type
           rdf:resource="http://purl.org/dc/dcmitype/StillImage" /><dc:title></dc:title></cc:Work></rdf:RDF></metadata><defs
     id="defs3075">
<linearGradient
   y2="73.136002"
   y1="13.835"
   gradientTransform="matrix(1.3105,0,0,0.76306,0.125,-1.125)"
   x2="40.418999"
   gradientUnits="userSpaceOnUse"
   x1="4.6806998"
   id="linearGradient2947"><stop
     offset="0"
     stop-color="#fff"
     id="stop2943" /><stop
     offset="1"
     stop-opacity="0"
     stop-color="#fff"
     id="stop2945" /></linearGradient><linearGradient
   y2="25.540001"
   y1="38.133999"
   gradientTransform="matrix(1.1195,0,0,0.89322,0.125,-1.125)"
   x2="12.728"
   gradientUnits="userSpaceOnUse"
   x1="12.745"
   id="linearGradient2932"><stop
     offset="0"
     stop-color="#787878"
     id="stop2928" /><stop
     offset="1"
     stop-color="#d0d0d0"
     id="stop2930" /></linearGradient><linearGradient
   y2="17.641001"
   y1="46.605999"
   gradientTransform="matrix(1.3769,0,0,0.82497,-1.4428,-2.7346)"
   x2="17.809"
   gradientUnits="userSpaceOnUse"
   x1="17.827999"
   id="linearGradient2837"><stop
     offset="0"
     stop-color="#919191"
     id="stop2833" /><stop
     offset=".20232"
     stop-color="#e9e9e9"
     id="stop2839" /><stop
     offset=".23642"
     stop-color="#f3f3f3"
     id="stop2843" /><stop
     offset=".29892"
     stop-color="#e6e6e6"
     id="stop2841" /><stop
     offset="1"
     stop-color="#f8f8f8"
     id="stop2835" /></linearGradient><linearGradient
   y2="609.51001"
   x2="302.85999"
   gradientTransform="matrix(2.7744,0,0,1.9697,-1892.2,-872.89)"
   y1="366.64999"
   gradientUnits="userSpaceOnUse"
   x1="302.85999"
   id="linearGradient6715"><stop
     offset="0"
     stop-opacity="0"
     id="stop5050" /><stop
     offset=".5"
     id="stop5056" /><stop
     offset="1"
     stop-opacity="0"
     id="stop5052" /></linearGradient><radialGradient
   r="117.14"
   gradientTransform="matrix(2.7744,0,0,1.9697,-1891.6,-872.89)"
   cx="605.71002"
   cy="486.64999"
   gradientUnits="userSpaceOnUse"
   xlink:href="#linearGradient5060"
   id="radialGradient6717" /><linearGradient
   id="linearGradient5060"><stop
     offset="0"
     id="stop5062" /><stop
     offset="1"
     stop-opacity="0"
     id="stop5064" /></linearGradient><radialGradient
   r="117.14"
   gradientTransform="matrix(-2.7744,0,0,1.9697,112.76,-872.89)"
   cx="605.71002"
   cy="486.64999"
   gradientUnits="userSpaceOnUse"
   xlink:href="#linearGradient5060"
   id="radialGradient6719" /><linearGradient
   inkscape:collect="always"
   xlink:href="#linearGradient2947"
   id="linearGradient4050"
   gradientUnits="userSpaceOnUse"
   gradientTransform="matrix(14.139928,0,0,8.2332037,-5.3676002,86.072338)"
   x1="4.6806998"
   y1="13.835"
   x2="40.418999"
   y2="73.136002" /><linearGradient
   inkscape:collect="always"
   xlink:href="#linearGradient2932"
   id="linearGradient4055"
   gradientUnits="userSpaceOnUse"
   gradientTransform="matrix(12.079092,0,0,9.6375937,-5.3676002,86.072338)"
   x1="12.745"
   y1="38.133999"
   x2="12.728"
   y2="25.540001" /><linearGradient
   inkscape:collect="always"
   xlink:href="#linearGradient2837"
   id="linearGradient4070"
   gradientUnits="userSpaceOnUse"
   gradientTransform="matrix(14.856365,0,0,8.9011953,-22.283723,68.705205)"
   x1="17.827999"
   y1="46.605999"
   x2="17.809"
   y2="17.641001" /></defs><sodipodi:namedview
     pagecolor="#ffffff"
     bordercolor="#666666"
     borderopacity="1"
     objecttolerance="10"
     gridtolerance="10"
     guidetolerance="10"
     inkscape:pageopacity="0"
     inkscape:pageshadow="2"
     inkscape:window-width="1884"
     inkscape:window-height="1121"
     id="namedview3073"
     showgrid="false"
     inkscape:zoom="1"
     inkscape:cx="250"
     inkscape:cy="250"
     inkscape:window-x="0"
     inkscape:window-y="0"
     inkscape:window-maximized="0"
     inkscape:current-layer="svg3051" /><path
     inkscape:connector-curvature="0"
     style="fill:#7c93b3;fill-opacity:1"
     id="path3057"
     d="m 175.16876,32.555979 c -16.39333,0 -29.57131,13.289442 -29.57131,29.682778 0,5.307703 1.36939,10.322736 3.79406,14.618458 9.89259,-5.580437 21.32927,-8.815804 33.4769,-8.815804 1.17239,0 2.30155,0.05002 3.4593,0.111466 -0.13105,-1.661841 -0.22315,-3.326397 -0.22315,-5.021535 0,-9.130909 1.98317,-17.818099 5.4679,-25.665722 -4.69442,-3.146051 -10.31059,-4.909498 -16.40548,-4.909498 z" /><path
     inkscape:connector-curvature="0"
     style="fill:#7c93b3;fill-opacity:1"
     id="path3059"
     d="m 115.02366,119.48718 c -31.479805,0 -57.022628,25.31917 -57.022628,56.79898 0,31.47981 25.542823,57.02263 57.022628,57.02263 11.98186,0 23.08057,-3.7331 32.24935,-10.04336 -3.78869,-5.88718 -6.02587,-12.92574 -6.02587,-20.42111 0,-3.8903 0.57405,-7.62755 1.67385,-11.15873 -17.16503,-12.40486 -28.34376,-32.59089 -28.34376,-55.3485 0,-5.78221 0.76197,-11.37308 2.12021,-16.73845 -0.56378,-0.0143 -1.10602,-0.11146 -1.67385,-0.11146 z" /><path
     inkscape:connector-curvature="0"
     style="fill:#7c93b3;fill-opacity:1"
     id="path3061"
     d="m 182.87134,74.513574 c -34.17285,0 -61.82066,27.647816 -61.82066,61.820666 0,20.11672 9.58463,37.92553 24.43816,49.21144 6.26181,-12.0776 18.83844,-20.30964 33.36544,-20.30964 1.75573,0 3.44101,0.21293 5.13315,0.44658 -0.53118,-3.86472 -0.78112,-7.81904 -0.78112,-11.82824 0,-19.17141 6.24058,-36.90091 16.84992,-51.21998 -6.35213,-7.945511 -10.8965,-17.491559 -12.83287,-27.894321 -1.43619,-0.100034 -2.89382,-0.223647 -4.35145,-0.223647 z" /><path
     inkscape:connector-curvature="0"
     style="fill:#7c93b3;fill-opacity:1"
     id="path3063"
     d="m 315.5514,52.977091 c -1.21112,0 -2.37851,0.148621 -3.57091,0.222931 0.51574,3.252016 0.89273,6.535756 0.89273,9.931177 0,5.284623 -0.67208,10.384185 -1.89706,15.287966 14.36194,7.947657 26.28807,19.840203 34.14641,34.257875 8.15058,-4.24327 17.2429,-6.94139 26.89327,-7.58825 C 369.5288,75.921902 345.36551,52.976376 315.55126,52.976376 z" /><path
     inkscape:connector-curvature="0"
     style="fill:#7c93b3;fill-opacity:1"
     id="path3065"
     d="m 249.48646,6.2207488 c -31.47909,0 -56.91116,25.4320712 -56.91116,56.9111642 0,12.975766 4.32065,24.918329 11.6053,34.481525 15.80314,-18.291114 39.12665,-29.906424 65.16821,-29.906424 12.74069,0 24.82259,2.837162 35.70908,7.811182 0.88601,-3.988476 1.34331,-8.134147 1.34331,-12.388426 0,-31.479093 -25.42993,-56.9111647 -56.91188,-56.9111647 z" /><path
     inkscape:connector-curvature="0"
     style="fill:#7c93b3;fill-opacity:1"
     id="path3067"
     d="m 376.59323,111.3416 c -10.37633,0 -20.09672,2.64917 -28.67887,7.14174 4.87306,10.79432 7.58825,22.77047 7.58825,35.37397 0,23.5986 -9.48817,45.02648 -24.88475,60.59311 11.31093,12.55777 27.72141,20.42111 45.97537,20.42111 34.17285,0 61.82066,-27.64781 61.82066,-61.82066 0,-34.17357 -27.64781,-61.7092 -61.82066,-61.7092 z" /><path
     inkscape:connector-curvature="0"
     style="fill:#7c93b3;fill-opacity:1"
     id="path3069"
     d="m 178.85571,171.71178 c -17.25577,0 -31.13326,13.87749 -31.13326,31.13326 0,17.25577 13.87749,31.24544 31.13326,31.24544 13.22728,0 24.45389,-8.25347 29.01327,-19.86307 -11.12515,-11.33021 -19.11996,-25.78504 -22.65257,-41.84613 -2.06726,-0.42728 -4.16554,-0.6695 -6.36063,-0.6695 z" /><path
     inkscape:connector-curvature="0"
     style="fill:#7c93b3;fill-opacity:1"
     id="path3071"
     d="m 269.35024,74.179177 c -44.04829,0 -79.67663,35.624053 -79.67663,79.676633 0,44.04686 35.62477,79.67663 79.67663,79.67663 44.05044,0 79.67663,-35.62905 79.67663,-79.67663 0,-44.05115 -35.6269,-79.676633 -79.67663,-79.676633 z" /><g
     id="g6707"
     transform="matrix(0.2562019,0,0,0.22515988,475.38995,457.28186)"><rect
       id="rect6709"
       style="opacity:0.40206;color:#000000;fill:url(#linearGradient6715)"
       height="478.35999"
       width="1339.6"
       y="-150.7"
       x="-1559.3" /><path
       inkscape:connector-curvature="0"
       id="path6711"
       style="opacity:0.40206;color:#000000;fill:url(#radialGradient6717)"
       d="m -219.62,-150.68 v 478.33 c 142.88,0.9 345.4,-107.17 345.4,-239.2 0,-132.02 -159.44,-239.13 -345.4,-239.13 z" /><path
       inkscape:connector-curvature="0"
       id="path6713"
       style="opacity:0.40206;color:#000000;fill:url(#radialGradient6719)"
       d="m -1559.3,-150.68 v 478.33 c -142.8,0.9 -345.4,-107.17 -345.4,-239.2 0,-132.02 159.5,-239.13 345.4,-239.13 z" /></g><path
     style="fill:url(#linearGradient4070);fill-rule:evenodd;stroke:#828282;stroke-width:5.0000889;stroke-miterlimit:4;stroke-dasharray:none"
     inkscape:connector-curvature="0"
     id="path1943"
     d="M 64.840029,222.82125 18.954587,433.08052 c -7.346721,33.67472 8.712699,55.17863 31.945124,55.17863 H 452.82757 c 23.23027,0 39.43643,-25.194 31.36572,-54.59598 L 426.11222,222.24939 c -1.60766,-5.82644 -9.03099,-10.46602 -15.1056,-10.45523 L 79.934847,212.3768 c -8.919861,0.0108 -13.363068,2.50322 -15.095897,10.44445 z" /><path
     style="fill-opacity:0.17543999;fill-rule:evenodd"
     inkscape:connector-curvature="0"
     id="path2850"
     d="m 390.93882,246.37521 h -89.75969 l 8.37283,49.3306 h 90.46101 l -9.07415,-49.3306 z" /><path
     style="fill:none;stroke:#000000;stroke-width:3.75006668;stroke-linecap:round;stroke-opacity:0.09941502000000001;stroke-miterlimit:4;stroke-dasharray:none"
     inkscape:connector-curvature="0"
     id="path2852"
     d="M 410.9969,328.64682 H 249.1511" /><path
     style="fill:none;stroke:#000000;stroke-width:3.75006668;stroke-linecap:round;stroke-opacity:0.09941502000000001;stroke-miterlimit:4;stroke-dasharray:none"
     inkscape:connector-curvature="0"
     id="path2854"
     d="M 416.39176,350.22626 H 249.1511" /><path
     style="fill:none;stroke:#000000;stroke-width:3.75006668;stroke-linecap:round;stroke-opacity:0.12280997000000000;stroke-miterlimit:4;stroke-dasharray:none"
     inkscape:connector-curvature="0"
     id="path2856"
     d="M 423.13534,371.8057 H 249.1511" /><path
     style="fill:none;stroke:#000000;stroke-width:3.75006668;stroke-linecap:round;stroke-opacity:0.15204999999999999;stroke-miterlimit:4;stroke-dasharray:none"
     inkscape:connector-curvature="0"
     id="path2858"
     d="M 429.29627,393.38514 H 249.06479" /><path
     style="fill:none;stroke:#000000;stroke-width:3.75006668;stroke-linecap:round;stroke-opacity:0.15204999999999999;stroke-miterlimit:4;stroke-dasharray:none"
     inkscape:connector-curvature="0"
     id="path2860"
     d="M 436.03985,414.96458 H 249.06479" /><path
     style="fill:none;stroke:#000000;stroke-width:3.75006668;stroke-linecap:round;stroke-opacity:0.15204999999999999;stroke-miterlimit:4;stroke-dasharray:none"
     inkscape:connector-curvature="0"
     id="path2862"
     d="M 444.13213,436.54402 H 249.06479" /><path
     style="fill:none;stroke:#000000;stroke-width:3.75006668;stroke-linecap:round;stroke-opacity:0.11695999000000000;stroke-miterlimit:4;stroke-dasharray:none"
     inkscape:connector-curvature="0"
     id="path2864"
     d="M 434.07612,458.12346 H 249.01084" /><path
     inkscape:connector-curvature="0"
     id="text2866"
     d="m 97.085388,247.59445 h 12.764242 l 22.80457,35.29317 4.59144,-27.13615 c 0.48927,-2.89164 0.47045,-4.69352 -0.0546,-5.41643 -0.68808,-0.97108 -1.96544,-1.45662 -3.81048,-1.45662 h -1.64004 l 0.21725,-1.28397 h 16.38959 l -0.21725,1.28397 h -1.67241 c -1.98531,0 -3.50099,0.60423 -4.53445,1.80189 -0.63308,0.74449 -1.17866,2.43847 -1.62411,5.07116 l -6.71281,39.67381 h -1.2516 l -24.60704,-37.90429 -4.90362,28.98119 c -0.48927,2.89164 -0.48124,4.69352 0.0114,5.41644 0.72046,0.97107 1.98702,1.45661 3.82127,1.45661 h 1.66162 l -0.21725,1.28398 H 91.722353 l 0.217249,-1.28398 h 1.629248 c 2.017678,0 3.544155,-0.60423 4.577608,-1.80188 0.633084,-0.7445 1.17866,-2.43848 1.624112,-5.07117 l 5.53711,-32.72522 c -1.10011,-1.59688 -1.95701,-2.65428 -2.57254,-3.16139 -0.62631,-0.50712 -1.5818,-0.98187 -2.866453,-1.42425 -0.634276,-0.205 -1.641043,-0.3129 -3.000548,-0.3129 l 0.217249,-1.28397 z" /><path
     inkscape:connector-curvature="0"
     id="text2870"
     d="m 161.37313,250.1624 -2.13229,18.60148 h 10.33655 c 2.68664,0 4.5235,-0.39922 5.5226,-1.20845 1.3201,-1.06818 2.21506,-2.9456 2.65127,-5.62145 h 1.28398 l -1.87751,16.3788 h -1.28397 c -0.0615,-2.28742 -0.21573,-3.76561 -0.46522,-4.413 -0.31724,-0.80923 -0.92402,-1.44582 -1.82033,-1.90978 -0.89755,-0.45316 -2.32695,-0.69054 -4.30147,-0.69054 h -10.33656 l -1.77855,15.51562 c -0.23871,2.08241 -0.2971,3.34481 -0.16562,3.79798 0.14227,0.45317 0.42514,0.80923 0.85818,1.07897 0.42225,0.26975 1.29216,0.39922 2.58693,0.39922 h 7.98439 c 2.65427,0 4.61745,-0.18342 5.8584,-0.56106 1.2505,-0.36685 2.48787,-1.08977 3.72413,-2.17953 1.59953,-1.43503 3.31553,-3.60376 5.14677,-6.49541 h 1.39188 l -5.41003,11.80396 h -36.27504 l 0.14719,-1.28398 h 1.6724 c 1.10056,0 2.18887,-0.26974 3.24213,-0.79844 0.78654,-0.36685 1.35797,-0.92792 1.70103,-1.66162 0.35508,-0.74449 0.65895,-2.26584 0.92116,-4.55326 l 3.50516,-30.57807 c 0.34137,-2.97796 0.25075,-4.823 -0.26353,-5.51354 -0.73523,-0.92792 -2.06313,-1.39188 -4.00528,-1.39188 h -1.6724 l 0.14718,-1.28397 h 36.27504 l -0.66327,10.30418 h -1.3595 c -0.2023,-2.47085 -0.54637,-4.17562 -1.02389,-5.09275 -0.48706,-0.92791 -1.2794,-1.64004 -2.37824,-2.12557 -0.88834,-0.34527 -2.4978,-0.51791 -4.83917,-0.51791 h -12.9045 z" /><path
     inkscape:connector-curvature="0"
     id="text2874"
     d="m 253.77779,247.59445 0.0719,1.28397 c -1.21923,0 -2.20998,0.22659 -2.94108,0.65818 -0.74128,0.44237 -1.42903,1.26239 -2.05186,2.47084 -0.41861,0.80923 -1.04409,2.74059 -1.86564,5.79408 l -10.99452,37.93666 h -1.38108 l -12.41122,-30.09253 -8.97401,30.09253 h -1.25161 l -16.17334,-39.08037 c -1.19966,-2.92401 -1.96476,-4.63958 -2.26473,-5.17906 -0.51293,-0.87397 -1.1864,-1.53214 -2.00842,-1.95294 -0.82263,-0.43159 -1.91369,-0.64739 -3.27319,-0.64739 l -0.0719,-1.28397 h 17.41461 l 0.0719,1.28397 h -0.8308 c -1.21924,0 -2.14223,0.28054 -2.75878,0.83081 -0.61594,0.56107 -0.90215,1.23003 -0.85801,2.01768 0.0453,0.80923 0.65706,2.67585 1.83453,5.58907 l 10.74844,26.41324 6.55297,-22.4642 -1.61315,-3.94904 -1.28849,-3.16138 c -0.55023,-1.1545 -1.14716,-2.17953 -1.80035,-3.05349 -0.3269,-0.44238 -0.71431,-0.80923 -1.17362,-1.11135 -0.60622,-0.42079 -1.1944,-0.71212 -1.78793,-0.90633 -0.44963,-0.12948 -1.14441,-0.20501 -2.0939,-0.20501 l -0.0719,-1.28397 h 18.33173 l 0.072,1.28397 h -1.25161 c -1.29476,0 -2.22854,0.28054 -2.80193,0.83081 -0.57278,0.56107 -0.83257,1.31635 -0.77997,2.25505 0.0665,1.18687 0.71068,3.24771 1.91094,6.18251 l 10.45372,25.58243 7.50261,-25.9277 c 0.8642,-2.87006 1.25946,-4.86616 1.19779,-5.96671 -0.0302,-0.53949 -0.23067,-1.03582 -0.59115,-1.49977 -0.36048,-0.46396 -0.79942,-0.78765 -1.31681,-0.97108 -0.9029,-0.32369 -2.05568,-0.48554 -3.46913,-0.48554 l -0.0719,-1.28397 h 14.05901 z" /><path
     inkscape:connector-curvature="0"
     id="text2878"
     d="m 284.18962,246.48311 1.7848,16.28168 h -1.28398 c -0.7638,-3.12902 -1.78033,-5.61065 -3.05195,-7.46648 -1.28122,-1.84505 -2.9754,-3.32324 -5.08978,-4.40221 -2.10476,-1.08976 -4.22474,-1.62925 -6.35031,-1.62925 -2.40611,0 -4.32178,0.7337 -5.72543,2.20111 -1.41445,1.4674 -2.01877,3.1398 -1.81297,5.01722 0.15731,1.43503 0.79675,2.74058 1.91833,3.91666 1.62546,1.73715 5.28812,4.04615 10.99997,6.93779 4.66123,2.36295 7.85948,4.17563 9.60553,5.43802 1.74605,1.2624 3.14891,2.74059 4.20014,4.45616 1.05124,1.71556 1.68996,3.50666 1.89576,5.38407 0.39032,3.56061 -0.66447,6.63568 -3.14395,9.21442 -2.47949,2.57874 -5.89935,3.86272 -10.24761,3.86272 -1.3595,0 -2.65412,-0.0971 -3.88623,-0.3129 -0.72395,-0.1079 -2.25906,-0.5287 -4.59453,-1.2624 -2.3343,-0.72291 -3.80955,-1.08976 -4.41377,-1.08976 -0.57186,0 -1.01689,0.17263 -1.31352,0.5179 -0.29664,0.34527 -0.46556,1.06819 -0.50912,2.14716 h -1.28398 l -1.76824,-16.13063 h 1.28398 c 0.97443,3.37718 2.06042,5.90197 3.25917,7.58517 1.20835,1.67241 2.91465,3.06428 5.12968,4.17562 2.21503,1.11134 4.57475,1.67241 7.07796,1.67241 2.89165,0 5.0843,-0.76607 6.59954,-2.29821 1.50564,-1.52135 2.14853,-3.33403 1.92026,-5.41644 -0.12656,-1.1545 -0.5672,-2.31979 -1.33272,-3.49587 -0.76669,-1.18687 -1.87999,-2.28742 -3.3291,-3.30166 -0.98203,-0.69054 -3.60412,-2.16873 -7.88668,-4.42378 -4.27176,-2.25505 -7.32856,-4.05694 -9.18,-5.39486 -1.84183,-1.34872 -3.29864,-2.82691 -4.35002,-4.44537 -1.06217,-1.61845 -1.69971,-3.39876 -1.91261,-5.34091 -0.37139,-3.38797 0.60521,-6.2904 2.93823,-8.72888 2.32105,-2.44927 5.47826,-3.6685 9.48124,-3.6685 2.50322,0 5.22491,0.61501 8.15428,1.84504 1.35745,0.57185 2.30651,0.86317 2.83521,0.86317 0.60423,0 1.06966,-0.18342 1.41905,-0.53948 0.33861,-0.35606 0.57227,-1.07897 0.67939,-2.16873 h 1.28398 z" /><path
     style="fill:url(#linearGradient4055);fill-rule:evenodd;stroke:#9e9e9e;stroke-width:3.75006668;stroke-miterlimit:4;stroke-dasharray:none"
     inkscape:connector-curvature="0"
     id="path2924"
     d="M 221.21652,328.84104 V 458.31768 H 81.619122 c -12.207489,0 -22.248402,-12.8074 -16.179185,-31.02045 L 86.34502,328.84104 h 134.8715 z" /><path
     style="fill:none;stroke:#ffffff;stroke-width:1.00001788px;stroke-linecap:round;stroke-linejoin:round;stroke-opacity:0.30994005"
     inkscape:connector-curvature="0"
     id="path2934"
     d="M 211.10655,437.41799 H 76.235052" /><path
     style="fill:none;stroke:#ffffff;stroke-width:2.44954371px;stroke-linecap:round;stroke-linejoin:round;stroke-opacity:0.30994005"
     inkscape:connector-curvature="0"
     id="path2937"
     d="M 211.10655,437.4072 H 76.235052" /><path
     style="fill:none;stroke:url(#linearGradient4050);stroke-width:0.98189747px"
     inkscape:connector-curvature="0"
     id="path2939"
     d="m 73.483674,230.81643 -42.946323,202.4691 c -4.761503,22.4534 -3.437605,44.08679 21.33775,44.08679 H 447.7823 c 24.10423,0 31.89441,-19.91782 23.50001,-50.29088 L 417.10712,230.9567 c -1.48898,-5.36249 -4.95248,-8.96626 -10.54155,-8.95547 l -321.857351,0.5287 c -6.879525,0.0216 -9.998833,2.52479 -11.221309,8.2865 z" /><path
     inkscape:connector-curvature="0"
     id="path2963"
     style="color:#000000;fill:#ffffff;fill-opacity:0.63742999"
     d="m 58.696902,438.76671 a 10.453081,10.453081 0 1 1 -20.906162,0 10.453081,10.453081 0 1 1 20.906162,0 z" /></svg>